<?xml version="1.0" encoding="UTF-8"?><svg id="a" xmlns="http://www.w3.org/2000/svg" viewBox="0 0 637.01 220"><defs><style>.b{fill:#fff;}</style></defs><path class="b" d="M157.54,71.79c3.83-2.23,6.97-5.48,9.06-9.39,2.19-4.31,3.33-9.08,3.33-13.92s-1.14-9.61-3.33-13.92c-2.1-3.91-5.23-7.16-9.06-9.39-3.91-2.18-8.31-3.33-12.78-3.33s-8.88,1.15-12.78,3.33c-3.83,2.23-6.97,5.48-9.06,9.39-2.19,4.31-3.33,9.08-3.33,13.92s1.14,9.61,3.33,13.92c2.09,3.91,5.23,7.16,9.06,9.39,3.91,2.18,8.31,3.33,12.78,3.33s8.88-1.15,12.78-3.33Zm-39.36,18.92c-7.7-4.04-14.16-10.11-18.66-17.55-4.5-7.44-6.88-15.98-6.88-24.67s2.38-17.23,6.88-24.67c4.5-7.44,10.95-13.51,18.66-17.55C126.44,2.15,135.54,0,144.76,0s18.32,2.14,26.58,6.26c7.7,4.04,14.16,10.11,18.66,17.55,4.5,7.44,6.88,15.98,6.88,24.67s-2.38,17.23-6.88,24.67c-4.5,7.44-10.95,13.51-18.66,17.55-8.25,4.11-17.35,6.26-26.58,6.26s-18.32-2.14-26.58-6.26Z"/><path class="b" d="M267.97,71.79c3.83-2.23,6.96-5.48,9.05-9.39,2.19-4.31,3.33-9.08,3.33-13.92s-1.14-9.61-3.33-13.92c-2.09-3.91-5.22-7.15-9.05-9.39-3.91-2.18-8.31-3.33-12.79-3.33s-8.88,1.15-12.79,3.33c-3.83,2.23-6.96,5.48-9.05,9.39-2.19,4.31-3.33,9.08-3.33,13.92s1.14,9.61,3.33,13.92c2.09,3.91,5.22,7.16,9.05,9.39,3.91,2.18,8.31,3.33,12.79,3.33s8.88-1.15,12.79-3.33Zm-39.36,18.92c-7.7-4.04-14.16-10.11-18.66-17.55-4.5-7.44-6.88-15.98-6.88-24.67s2.38-17.23,6.88-24.67c4.5-7.44,10.95-13.51,18.66-17.55C236.87,2.15,245.96,0,255.19,0s18.32,2.14,26.58,6.26c7.7,4.04,14.15,10.11,18.65,17.56,4.5,7.44,6.88,15.97,6.88,24.67s-2.38,17.23-6.88,24.67c-4.5,7.44-10.95,13.51-18.65,17.56-8.25,4.11-17.35,6.26-26.58,6.26s-18.32-2.14-26.58-6.26Z"/><polygon class="b" points="349.83 61.28 339.97 71.79 339.97 95.1 313.85 95.1 313.85 1.86 339.97 1.86 339.97 40.63 375.94 1.86 404.99 1.86 366.93 43.15 407.04 95.1 376.4 95.1 349.83 61.28"/><rect class="b" x="413.29" y="1.86" width="26.38" height="93.24"/><polygon class="b" points="528.11 74.74 528.11 95.12 453.25 95.12 453.25 1.87 528.11 1.87 528.11 22.25 479.36 22.25 479.36 37.92 512.32 37.92 512.32 57.62 479.36 57.62 479.36 74.74 528.11 74.74"/><path class="b" d="M24.94,90.78c-7.57-3.96-13.9-9.93-18.28-17.25C2.3,65.91,0,57.27,0,48.49S2.3,31.07,6.66,23.45c4.38-7.33,10.71-13.3,18.28-17.25C33.06,1.99,42.11-.14,51.26,0c7.91-.12,15.75,1.42,23.02,4.52,6.67,2.89,12.52,7.38,17.06,13.06l-10,9.05c-1.73,1.54-3.94,2.43-6.25,2.51s-4.58-.63-6.43-2.03c-4.64-3.46-10.29-5.3-16.08-5.22-4.72-.12-9.39,.99-13.56,3.23-3.88,2.19-7.06,5.45-9.14,9.39-2.14,4.33-3.25,9.09-3.25,13.92s1.11,9.59,3.25,13.92c2.08,3.94,5.25,7.21,9.14,9.39,4.14,2.27,8.81,3.42,13.53,3.33,8.61,0,15.94-3.64,21.98-10.92l16.78,15.19c-4.53,5.69-10.39,10.17-17.06,13.06-7.26,3.11-15.1,4.65-23,4.54-9.15,.16-18.19-1.96-26.31-6.16Z"/><polygon class="b" points="67.32 173.91 105.32 111 130.71 111 130.71 220 102.2 220 102.2 163.78 74.28 209.25 60.32 209.25 32.49 163.78 32.49 220 3.94 220 3.94 111 29.32 111 67.32 173.91"/><path class="b" d="M215.73,176.07l-14.01-34.89-14.03,34.89h28.04Zm9.02,22.74h-46.09l-8.57,21.17h-31.46l48.12-109h30.36l48.32,109h-32.13l-8.57-21.17Z"/><polygon class="b" points="377.07 111 377.07 220 351.68 220 303.56 161.91 303.56 220 273.35 220 273.35 111 298.74 111 346.86 169.08 346.86 111 377.07 111"/><rect class="b" x="392.92" y="111" width="30.85" height="109"/><path class="b" d="M508.98,176.07l-14.03-34.89-14.01,34.92,28.04-.03Zm9.02,22.74h-46.1l-8.57,21.17h-31.45l48.11-109h30.38l48.32,109h-32.13l-8.57-21.17Z"/><polygon class="b" points="566.57 1.87 637.01 1.87 625.16 140.55 578.1 140.55 566.57 1.87"/><path class="b" d="M614.26,206.16c-.55,1.08-2.38,3.42-3.92,3.33-1.54-.09-5.94-2.61-4.05-5.68,0,0,1.98-3.15,3.7-2.74,1.71,.4,4.81,3.98,4.27,5.07v.03Zm-11.23-16.35c-1.31-.34-4.14-4.99-2.05-6.69,1.15-.73,2.36-1.36,3.6-1.91,.73-.25,1.53-.21,2.25,.09,1.46,.81,2.74,5.03,1.65,6.75-1.1,1.72-4.09,2.06-5.45,1.72v.03Zm-7.7-17.8c-.56,2.04-1.67,5.86-3.81,5.76-2.14-.1-7.43-1.21-7.33-3.24,.09-.98,.34-1.94,.74-2.83,.45-1.08,1.12-2.04,1.98-2.83,.5-.58,1.17-.97,1.91-1.13,.74-.16,1.52-.07,2.21,.25,2.48,.98,4.86,1.98,4.31,4.01v.03Zm-7.33,30.04c-.39,.02-.79-.04-1.15-.18s-.7-.37-.97-.66c-.27-.29-.47-.63-.6-1-.12-.37-.16-.77-.12-1.16,0,0-.4-6.44,2.02-6.35,1.47,.2,2.87,.74,4.1,1.58s2.23,1.96,2.94,3.26c1.37,2.64-4.77,4.6-6.23,4.51Zm46.84-16.69c-1.2,.01-2.39-.23-3.48-.71-1.1-.48-2.08-1.2-2.87-2.09s-1.4-1.95-1.75-3.09-.46-2.35-.31-3.54c.02-.14,0-.29-.03-.43-.04-.14-.11-.27-.2-.38-.09-.11-.21-.2-.34-.26-.13-.06-.27-.1-.42-.11-3.32-.1-6.48-1.47-8.84-3.82-2.35-2.35-3.72-5.51-3.82-8.84,0-.14-.04-.29-.1-.42-.06-.13-.15-.25-.26-.34s-.24-.16-.38-.2-.29-.05-.43-.02c-1.63,.21-3.29-.07-4.77-.8-1.48-.73-2.71-1.87-3.54-3.29-.76-1.3-1.15-2.79-1.12-4.3,0-.14-.02-.28-.08-.41-.05-.13-.13-.25-.23-.35s-.22-.18-.34-.23c-.13-.05-.27-.08-.41-.08-8.95,.16-17.47,3.82-23.75,10.19s-9.81,14.96-9.84,23.9v.27c.12,16.87,14.36,32.4,31.24,33.81,.99,.09,1.98,.13,2.96,.13,8.96,0,17.57-3.52,23.97-9.8,6.4-6.28,10.07-14.82,10.24-23.78,0-.14-.03-.27-.09-.4-.06-.13-.14-.24-.24-.33-.1-.09-.22-.17-.35-.22-.13-.05-.27-.07-.41-.07Z"/></svg>